<svg width="1512" height="1550" viewBox="0 0 1512 1550" fill="none" xmlns="http://www.w3.org/2000/svg">
<path d="M1511 1.27966V1.42933V1.69732V1.99299V2.31624V2.66697V3.04507V3.45045V3.883V4.34263V4.82922V5.34269V5.88293V6.44984V7.04332V7.66326V8.30957V8.98214V9.68088V10.4057V11.1564V11.9331V12.7354V13.5635V14.4171V15.2961V16.2005V17.1302V18.085V19.0649V20.0697V21.0994V22.1538V23.2329V24.3365V25.4646V26.617V27.7936V28.9944V30.2192V31.468V32.7406V34.037V35.357V36.7005V38.0675V39.4577V40.8713V42.3079V43.7676V45.2503V46.7557V48.2839V49.8347V51.408V53.0038V54.6219V56.2622V57.9246V59.6091V61.3154V63.0436V64.7935V66.565V68.3581V70.1725V72.0083V73.8653V75.7433V77.6424V79.5624V81.5033V83.4648V85.4469V87.4495V89.4726V91.5159V93.5795V95.6631V97.7667V99.8903V102.034V104.197V106.379V108.581V110.803V113.044V115.304V117.583V119.881V122.198V124.534V126.888V129.261V131.653V134.063V136.491V138.937V141.402V143.884V146.384V148.902V151.438V153.991V156.562V159.15V161.756V164.378V167.018V169.675V172.348V175.038V177.745V180.469V183.209V185.965V188.738V191.527V194.331V197.152V199.989V202.841V205.709V208.593V211.492V214.406V217.336V220.281V223.241V226.215V229.205V232.209V235.228V238.262V241.31V244.372V247.449V250.54V253.644V256.763V259.896V263.042V266.202V269.375V272.562V275.762V278.976V282.202V285.442V288.694V291.96V295.238V298.529V301.832V305.147V308.475V311.815V315.168V318.532V321.908V325.296V328.696V332.107V335.53V338.965V342.41V345.867V349.335V352.814V356.304V359.804V363.316V366.838V370.37V373.913V377.466V381.029V384.603V388.186V391.779V395.383V398.995V402.618V406.25V409.891V413.541V417.201V420.87V424.548V428.235V431.93V435.634V439.347V443.068V446.798V450.536V454.282V458.036V461.798V465.568V469.346V473.131V476.924V480.725V484.533V488.348V492.17V495.999V499.836V503.679V507.529V511.385V515.248V519.118V522.994V526.876V530.765V534.659V538.559V542.466V546.378V550.295V554.219V558.147V562.081V566.02V569.965V573.914V577.869V581.828V585.792V589.76V593.733V597.711V601.693V605.679V609.669V613.664V617.662V621.664V625.67V629.679V633.692V637.709V641.728V645.751V649.777V653.806V657.839V661.873V665.911V669.951V673.994V678.039V682.086V686.136V690.188V694.242V698.297V702.355V706.414V710.475V714.537V718.601V722.666V726.732V730.799V734.868V738.937V743.007V747.078V751.149V755.221V759.293V763.366V767.438V771.511V775.584V779.657V783.729V787.801V791.873V795.944V800.015V804.085V808.154V812.222V816.289V820.356V824.42V828.484V832.546V836.607V840.665V844.723V848.778V852.831V856.883V860.932V864.979V869.024V873.066V877.106V881.143V885.178V889.209V893.238V897.263V901.286V905.305V909.321V913.333V917.342V921.347V925.349V929.346V933.34V937.33V941.315V945.296V949.273V953.246V957.214V961.177V965.135V969.089V973.037V976.981V980.919V984.853V988.78V992.703V996.619V1000.53V1004.44V1008.34V1012.23V1016.12V1020V1023.87V1027.74V1031.6V1035.46V1039.31V1043.15V1046.98V1050.81V1054.63V1058.45V1062.25V1066.05V1069.85V1073.63V1077.41V1081.18V1084.94V1088.69V1092.43V1096.17V1099.9V1103.62V1107.33V1111.03V1114.73V1118.41V1122.09V1125.76V1129.41V1133.06V1136.7V1140.33V1143.95V1147.57V1151.17V1154.76V1158.34V1161.91V1165.47V1169.03V1172.57V1176.1V1179.62V1183.13V1186.63V1190.11V1193.59V1197.06V1200.51V1203.96V1207.39V1210.81V1214.22V1217.62V1221V1224.38V1227.74V1231.09V1234.43V1237.75V1241.07V1244.37V1247.66V1250.93V1254.2V1257.45V1260.69V1263.91V1267.12V1270.32V1273.5V1276.68V1279.83V1282.98V1286.11V1289.22V1292.33V1295.41V1298.49V1301.55V1304.59V1307.63V1310.64V1313.64V1316.63V1319.6V1322.56V1325.5V1328.43V1331.34V1334.24V1337.12V1339.99V1342.84V1345.67V1348.49V1351.29V1354.08V1356.85V1359.6V1362.34V1365.06V1367.76V1370.45V1373.12V1375.78V1378.41V1381.03V1383.64V1386.22V1388.79V1391.34V1393.87V1396.39V1398.88V1401.36V1403.83V1406.27V1408.69V1411.1V1413.49V1415.86V1418.21V1420.54V1422.86V1425.15V1427.43V1429.69V1431.92V1434.14V1436.34V1438.52V1440.68V1442.82V1444.94V1447.04V1449.12V1451.18V1453.22V1455.24V1457.24V1459.22V1461.18V1463.12V1465.03V1466.93V1468.8V1470.66V1472.49V1474.3V1476.09V1477.86V1479.6V1481.33V1483.03V1484.71V1486.37V1488.01V1489.62V1491.22V1492.78V1494.33V1495.86V1497.36V1498.68C1274.85 1382.1 1134.57 1410.63 980.151 1442.03C932.933 1451.64 884.393 1461.51 831.386 1467.58C774.723 1474.07 729.7 1472.42 685.207 1468.78C672.654 1467.75 660.137 1466.57 647.409 1465.36C615.035 1462.3 581.297 1459.1 542.151 1458.06C433.184 1455.18 282.244 1469.01 1.00002 1548.68L1 657.588L1.00001 198.342L1.00002 54.012L1.00002 14.2398L1.00002 3.8356V1.27966H1511Z" fill="url(#paint0_radial_41_1019)" stroke="white" stroke-width="2"/>
<defs>
<radialGradient id="paint0_radial_41_1019" cx="0" cy="0" r="1" gradientUnits="userSpaceOnUse" gradientTransform="translate(308.5 373.487) rotate(65.9396) scale(1314.7 1613)">
<stop stop-color="#6F4C61"/>
<stop offset="1" stop-color="#130443"/>
</radialGradient>
</defs>
</svg>
