<svg width="652" height="434" viewBox="0 0 652 434" fill="none" xmlns="http://www.w3.org/2000/svg">
<path d="M178.352 260.584C152.179 260.584 130.885 239.318 130.885 213.192C130.885 187.065 152.179 165.788 178.352 165.788C204.526 165.788 225.82 187.054 225.82 213.183C225.82 239.312 204.526 260.584 178.352 260.584ZM261.178 200.243H248.247C246.455 190.465 242.603 181.178 236.945 172.999L246.089 163.87C246.362 163.596 246.58 163.272 246.728 162.915C246.876 162.558 246.952 162.175 246.952 161.789C246.952 161.402 246.876 161.019 246.728 160.662C246.58 160.305 246.362 159.981 246.089 159.708L231.919 145.557C231.366 145.006 230.616 144.696 229.834 144.696C229.053 144.696 228.303 145.006 227.75 145.557L218.607 154.688C210.415 149.04 201.114 145.194 191.321 143.404V130.493C191.321 129.713 191.01 128.964 190.458 128.412C189.905 127.86 189.155 127.55 188.374 127.55H168.331C167.551 127.552 166.803 127.863 166.252 128.414C165.701 128.965 165.391 129.712 165.391 130.491V143.402C155.598 145.191 146.298 149.037 138.107 154.686L128.961 145.555C128.408 145.003 127.659 144.694 126.877 144.694C126.095 144.694 125.346 145.003 124.793 145.555L110.623 159.712C110.349 159.985 110.132 160.31 109.984 160.667C109.835 161.024 109.759 161.407 109.759 161.793C109.759 162.18 109.835 162.562 109.984 162.919C110.132 163.276 110.349 163.601 110.623 163.874L119.751 172.999C114.093 181.178 110.241 190.465 108.449 200.243H95.518C94.7388 200.247 93.9929 200.559 93.4432 201.11C92.8934 201.662 92.5845 202.408 92.584 203.186V223.195C92.5846 223.976 92.8955 224.724 93.4486 225.276C94.0016 225.828 94.7514 226.138 95.5332 226.138H108.449C110.241 235.916 114.093 245.203 119.751 253.382L110.623 262.514C110.349 262.787 110.132 263.111 109.984 263.468C109.835 263.825 109.759 264.208 109.759 264.595C109.759 264.981 109.835 265.364 109.984 265.721C110.132 266.078 110.349 266.402 110.623 266.676L124.793 280.824C125.066 281.097 125.391 281.314 125.749 281.462C126.107 281.61 126.49 281.686 126.877 281.686C127.264 281.686 127.647 281.61 128.005 281.462C128.363 281.314 128.688 281.097 128.961 280.824L138.1 271.684C146.291 277.333 155.591 281.179 165.384 282.968V295.88C165.384 296.66 165.695 297.408 166.247 297.96C166.8 298.512 167.55 298.822 168.331 298.822H188.374C189.155 298.822 189.905 298.512 190.458 297.96C191.01 297.408 191.321 296.66 191.321 295.88V282.968C201.114 281.179 210.415 277.333 218.607 271.684L227.75 280.815C228.024 281.089 228.349 281.306 228.706 281.453C229.064 281.601 229.447 281.678 229.834 281.678C230.221 281.678 230.605 281.601 230.962 281.453C231.32 281.306 231.645 281.089 231.919 280.815L246.089 266.667C246.362 266.394 246.58 266.069 246.728 265.712C246.876 265.355 246.952 264.972 246.952 264.586C246.952 264.199 246.876 263.817 246.728 263.46C246.58 263.103 246.362 262.778 246.089 262.505L236.945 253.374C242.603 245.194 246.455 235.908 248.247 226.129H261.178C261.96 226.129 262.71 225.819 263.263 225.267C263.816 224.716 264.127 223.967 264.127 223.187V203.186C264.127 202.405 263.816 201.657 263.263 201.105C262.71 200.553 261.96 200.243 261.178 200.243Z" fill="#EAF2FC"/>
<path d="M408.917 300.912C405.442 300.912 402.044 299.883 399.155 297.955C396.265 296.027 394.013 293.287 392.683 290.081C391.353 286.875 391.005 283.347 391.683 279.944C392.362 276.54 394.035 273.414 396.493 270.961C398.951 268.507 402.082 266.836 405.49 266.16C408.899 265.483 412.432 265.831 415.643 267.159C418.854 268.487 421.598 270.736 423.528 273.622C425.459 276.507 426.489 279.899 426.488 283.369C426.483 288.021 424.63 292.48 421.335 295.768C418.041 299.057 413.575 300.907 408.917 300.912ZM439.576 278.576H434.795C434.132 274.956 432.706 271.519 430.611 268.492L433.997 265.113C434.099 265.012 434.18 264.892 434.235 264.76C434.29 264.628 434.319 264.486 434.319 264.343C434.319 264.2 434.29 264.058 434.235 263.926C434.18 263.793 434.099 263.673 433.997 263.573L428.751 258.334C428.65 258.233 428.53 258.152 428.397 258.097C428.265 258.042 428.123 258.013 427.979 258.013C427.836 258.013 427.694 258.042 427.561 258.097C427.429 258.152 427.309 258.233 427.208 258.334L423.824 261.715C420.792 259.623 417.35 258.199 413.724 257.538V252.764C413.724 252.476 413.61 252.2 413.406 251.997C413.202 251.793 412.926 251.679 412.638 251.679H405.22C404.932 251.679 404.656 251.793 404.452 251.997C404.248 252.2 404.134 252.476 404.134 252.764V257.538C400.508 258.199 397.066 259.623 394.034 261.715L390.648 258.334C390.547 258.233 390.427 258.152 390.294 258.097C390.162 258.042 390.02 258.013 389.876 258.013C389.733 258.013 389.591 258.042 389.459 258.097C389.326 258.152 389.206 258.233 389.105 258.334L383.861 263.573C383.759 263.673 383.678 263.793 383.623 263.926C383.568 264.058 383.539 264.2 383.539 264.343C383.539 264.486 383.568 264.628 383.623 264.76C383.678 264.892 383.759 265.012 383.861 265.113L387.245 268.492C385.151 271.52 383.725 274.957 383.061 278.576H378.28C377.991 278.576 377.715 278.69 377.511 278.894C377.307 279.097 377.193 279.373 377.193 279.661V287.067C377.193 287.355 377.307 287.631 377.511 287.834C377.715 288.038 377.991 288.152 378.28 288.152H383.061C383.725 291.771 385.151 295.209 387.245 298.236L383.845 301.63C383.744 301.731 383.663 301.851 383.608 301.983C383.553 302.115 383.525 302.256 383.525 302.399C383.525 302.542 383.553 302.684 383.608 302.816C383.663 302.948 383.744 303.068 383.845 303.169L389.09 308.407C389.191 308.509 389.311 308.589 389.443 308.644C389.576 308.7 389.718 308.728 389.861 308.728C390.005 308.728 390.147 308.7 390.279 308.644C390.412 308.589 390.532 308.509 390.633 308.407L394.019 305.028C397.051 307.119 400.493 308.542 404.118 309.203V313.977C404.118 314.265 404.233 314.541 404.437 314.745C404.64 314.948 404.917 315.062 405.205 315.062H412.623C412.911 315.062 413.187 314.948 413.391 314.745C413.595 314.541 413.709 314.265 413.709 313.977V309.203C417.334 308.542 420.777 307.119 423.809 305.028L427.193 308.407C427.294 308.509 427.414 308.589 427.546 308.644C427.679 308.7 427.821 308.728 427.964 308.728C428.108 308.728 428.25 308.7 428.382 308.644C428.514 308.589 428.635 308.509 428.736 308.407L433.982 303.169C434.084 303.068 434.164 302.948 434.219 302.816C434.274 302.684 434.302 302.542 434.302 302.399C434.302 302.256 434.274 302.115 434.219 301.983C434.164 301.851 434.084 301.731 433.982 301.63L430.596 298.249C432.691 295.222 434.117 291.785 434.78 288.165H439.561C439.849 288.165 440.126 288.051 440.329 287.847C440.533 287.644 440.648 287.368 440.648 287.08V279.674C440.651 279.387 440.54 279.11 440.339 278.904C440.139 278.698 439.864 278.58 439.576 278.576Z" fill="#EAF2FC"/>
<path d="M236.611 343.687C236.611 343.687 239.071 361.453 247.243 373.29C241.831 368.11 230.754 360.001 209.911 353.17C209.911 353.17 216.116 373.247 234.424 383.821C228.291 382.148 220.117 380.598 209.911 380.084C209.911 380.084 223.519 398.887 242.257 401.148H277.682C277.682 401.148 278.028 358.805 236.611 343.687Z" fill="#6880E4"/>
<path d="M272.267 401.82C272.225 401.82 272.184 401.807 272.15 401.784C272.116 401.76 272.089 401.727 272.075 401.688C265.723 384.621 256.708 370.289 250.281 361.273C243.315 351.5 237.761 345.69 237.705 345.634C237.686 345.615 237.671 345.592 237.661 345.568C237.65 345.543 237.645 345.516 237.645 345.49C237.645 345.463 237.65 345.436 237.661 345.412C237.671 345.387 237.686 345.364 237.705 345.346C237.744 345.308 237.796 345.287 237.85 345.287C237.904 345.287 237.956 345.308 237.994 345.346C238.05 345.404 243.612 351.227 250.603 361.024C257.057 370.062 266.084 384.428 272.452 401.538C272.461 401.563 272.465 401.589 272.465 401.616C272.464 401.643 272.457 401.669 272.446 401.694C272.435 401.718 272.419 401.74 272.399 401.758C272.379 401.776 272.356 401.79 272.331 401.799C272.311 401.809 272.289 401.816 272.267 401.82Z" fill="#D4DFFF"/>
<path d="M260.948 401.82C260.914 401.82 260.88 401.811 260.85 401.795C260.82 401.779 260.795 401.755 260.777 401.727C256.591 395.167 212.056 355.605 211.605 355.206C211.584 355.189 211.566 355.168 211.553 355.144C211.541 355.12 211.533 355.094 211.531 355.067C211.529 355.04 211.532 355.013 211.541 354.988C211.55 354.962 211.564 354.939 211.582 354.919C211.6 354.899 211.623 354.883 211.648 354.872C211.673 354.86 211.7 354.854 211.727 354.854C211.755 354.853 211.782 354.858 211.807 354.868C211.833 354.879 211.856 354.894 211.875 354.913C213.711 356.543 256.9 394.91 261.117 401.517C261.131 401.539 261.141 401.564 261.145 401.589C261.15 401.615 261.149 401.641 261.143 401.666C261.138 401.692 261.127 401.716 261.111 401.737C261.096 401.758 261.077 401.776 261.055 401.79C261.023 401.81 260.986 401.82 260.948 401.82Z" fill="#D4DFFF"/>
<path d="M260.057 401.811C260.044 401.813 260.031 401.813 260.017 401.811C248.758 399.698 211.996 381.486 211.625 381.302C211.582 381.276 211.551 381.236 211.537 381.189C211.524 381.142 211.529 381.093 211.553 381.049C211.576 381.006 211.616 380.973 211.663 380.957C211.711 380.941 211.763 380.942 211.81 380.962C212.181 381.144 248.888 399.327 260.095 401.435C260.149 401.439 260.198 401.464 260.232 401.504C260.266 401.543 260.282 401.594 260.277 401.645C260.272 401.696 260.246 401.743 260.205 401.775C260.164 401.808 260.111 401.824 260.057 401.819V401.811Z" fill="#D4DFFF"/>
<path d="M356.718 400.957C356.718 400.957 349.924 370.443 398.783 328.139C398.783 328.139 392.591 371.194 378.984 388.881C378.984 388.881 380.22 371.986 411.455 349.446C411.455 349.446 409.602 381.256 388.262 394.222C366.922 407.187 385.169 395.109 385.169 395.109C385.169 395.109 401.56 377.077 420.116 370.371C420.116 370.371 405.568 398.204 388.255 401.157L356.718 400.957Z" fill="#6880E4"/>
<path d="M364.937 400.95C364.911 400.95 364.885 400.945 364.861 400.936C364.812 400.916 364.773 400.877 364.753 400.828C364.732 400.779 364.732 400.724 364.751 400.675C364.995 400.072 389.151 340.432 397.451 329.72C397.466 329.697 397.486 329.678 397.509 329.663C397.532 329.648 397.558 329.638 397.585 329.634C397.612 329.629 397.64 329.631 397.666 329.638C397.693 329.645 397.718 329.657 397.739 329.674C397.761 329.691 397.779 329.712 397.792 329.737C397.805 329.761 397.813 329.788 397.815 329.815C397.817 329.843 397.814 329.871 397.805 329.897C397.796 329.923 397.782 329.947 397.764 329.968C389.5 340.637 365.364 400.224 365.12 400.825C365.105 400.862 365.08 400.893 365.047 400.916C365.015 400.938 364.976 400.95 364.937 400.95Z" fill="#D4DFFF"/>
<path d="M373.655 400.95C373.621 400.95 373.589 400.943 373.559 400.928C373.529 400.914 373.503 400.893 373.483 400.867C373.467 400.846 373.455 400.821 373.448 400.794C373.441 400.768 373.44 400.741 373.444 400.714C373.448 400.687 373.458 400.662 373.472 400.638C373.487 400.615 373.505 400.595 373.528 400.579C381.245 395.016 410.191 351.043 410.483 350.6C410.498 350.578 410.517 350.558 410.54 350.542C410.563 350.527 410.589 350.516 410.616 350.51C410.643 350.504 410.671 350.503 410.698 350.508C410.726 350.513 410.752 350.523 410.775 350.538C410.799 350.552 410.819 350.571 410.835 350.593C410.851 350.616 410.862 350.641 410.868 350.667C410.874 350.694 410.875 350.721 410.87 350.748C410.865 350.774 410.855 350.8 410.84 350.823C410.766 350.932 403.445 362.053 395.271 373.722C384.286 389.402 377.05 398.55 373.779 400.917C373.742 400.94 373.699 400.952 373.655 400.95Z" fill="#D4DFFF"/>
<path d="M382.348 400.95C382.302 400.95 382.257 400.935 382.221 400.906C382.185 400.877 382.16 400.836 382.151 400.791C382.142 400.746 382.148 400.699 382.17 400.659C382.191 400.618 382.226 400.586 382.268 400.568C385.8 399.045 393.16 393.527 403.55 384.611C411.41 377.869 418.302 371.5 418.368 371.437C418.405 371.399 418.455 371.379 418.508 371.379C418.561 371.379 418.611 371.399 418.649 371.437C418.667 371.455 418.682 371.477 418.692 371.501C418.702 371.526 418.708 371.552 418.708 371.578C418.708 371.604 418.702 371.63 418.692 371.654C418.682 371.679 418.667 371.701 418.649 371.719C418.579 371.781 411.688 378.155 403.821 384.904C393.256 393.972 386.058 399.362 382.436 400.922C382.409 400.939 382.379 400.948 382.348 400.95Z" fill="#D4DFFF"/>
<path d="M376.904 209.214H192.242C192.242 209.214 195.685 229.065 195.302 232.882C194.92 236.699 159.992 293.189 171.32 291.39C194.859 287.655 198.743 287.853 198.743 287.853C198.743 287.853 190.332 333.661 198.743 338.631C207.153 343.6 264.495 335.951 264.495 335.951L256.888 400.96H367.728L358.6 325.487C356.63 309.193 358.193 292.666 363.184 277.029C370.075 255.468 378.812 224.161 376.904 209.214Z" fill="#D4DFFF"/>
<path opacity="0.3" d="M195.191 328.568C195.191 328.568 198.497 336.068 218.098 331.027C237.7 325.986 292.631 305.82 292.935 311.751C293.239 317.681 258.866 384.162 258.866 384.162C258.866 384.162 260.865 342.591 258.787 341.701C256.71 340.812 201.764 353.562 196.413 344.075C191.062 334.588 195.187 328.568 195.187 328.568" fill="#6880E4"/>
<path opacity="0.3" d="M169.813 291.145C169.813 291.145 169.626 288.621 174.397 285.921C179.167 283.222 202.389 284.491 202.389 286.08C202.389 287.668 195.454 312.803 195.617 311.061C195.78 309.318 197.46 291.637 195.869 291.004C194.279 290.37 168.609 293.731 169.813 291.145Z" fill="#6880E4"/>
<path opacity="0.3" d="M376.904 209.214C376.904 209.214 347.622 273.5 346.886 301.096C346.149 328.692 371.205 373.956 371.205 373.956C371.205 373.956 362.36 318.022 364.572 303.303C366.785 288.584 384.471 209.229 384.471 209.229L376.902 209.214" fill="#6880E4"/>
<path opacity="0.3" d="M205.623 207.181C205.623 207.181 218.17 230.207 233.942 233.177C249.714 236.148 280.827 209.229 280.827 209.229L205.623 207.181Z" fill="#6880E4"/>
<path d="M415.726 227.21L320.834 81.694C320.834 81.694 383.778 26.5564 446.787 107.66C505.435 183.148 415.726 227.21 415.726 227.21Z" fill="#D4DFFF"/>
<path opacity="0.3" d="M377.169 191.644C377.169 191.644 425.2 194.046 438.327 171.857C451.453 149.669 444.042 104.212 444.042 104.212C444.042 104.212 469.39 125.712 474.945 153.701C480.5 181.69 436.307 231.075 418.873 235.634C418.882 235.634 387.229 206.892 377.169 191.644Z" fill="#6880E4"/>
<path d="M500.567 389.361C500.567 389.361 500.186 385.947 500.16 382.851C500.134 379.754 500.16 375.256 500.16 375.256L486.481 375.529C486.481 375.529 488.307 385.728 488.307 386.262C488.307 386.796 485.281 388.881 485.281 388.881C485.281 388.881 490.078 393.221 492.412 393.063C494.746 392.904 500.567 389.361 500.567 389.361Z" fill="#803F10"/>
<path d="M500.566 389.361L502.342 398.397C502.372 398.721 502.334 399.049 502.231 399.358C502.127 399.667 501.96 399.951 501.74 400.192C501.52 400.433 501.252 400.626 500.954 400.757C500.655 400.889 500.332 400.957 500.006 400.957H464.922C464.874 399.544 465.135 398.137 465.687 396.834C466.606 394.695 484.516 389.65 485.281 388.886C485.281 388.886 491.256 390.904 493.668 390.904C496.081 390.904 500.566 389.361 500.566 389.361Z" fill="#1C056D"/>
<path d="M471.157 389.552C471.157 389.552 470.777 386.139 470.753 383.042C470.729 379.945 470.753 375.447 470.753 375.447L457.072 375.718C457.072 375.718 458.897 385.917 458.897 386.453C458.897 386.989 455.872 389.072 455.872 389.072C455.872 389.072 460.668 393.412 463.003 393.252C465.337 393.091 471.157 389.552 471.157 389.552Z" fill="#803F10"/>
<path d="M490.263 275.195C490.263 275.195 505.833 372.309 504.011 374.852C502.19 377.396 483.256 377.398 483.256 377.398C483.256 377.398 466.854 307.595 466.68 293.779C466.506 279.963 490.263 275.195 490.263 275.195Z" fill="#1C056D"/>
<path d="M490.263 239.707C490.263 239.707 499.562 250.594 490.263 275.195C480.963 299.796 475.795 378.112 472.615 378.832C469.436 379.553 454.424 379.7 453.586 378.832C452.747 377.964 451.156 306.938 451.553 298.21C451.951 289.482 457.117 239.707 457.117 239.707H490.263Z" fill="#1B3D9E"/>
<path d="M462.618 380.961H462.603C462.468 380.956 462.341 380.899 462.249 380.801C462.157 380.703 462.107 380.572 462.112 380.438C462.133 379.767 464.309 313.263 466.582 298.59C468.855 283.916 475.164 239.642 475.23 239.195C475.249 239.062 475.32 238.942 475.427 238.861C475.535 238.781 475.67 238.746 475.803 238.765C475.937 238.784 476.057 238.855 476.137 238.963C476.218 239.07 476.253 239.205 476.234 239.338C476.171 239.772 469.855 284.099 467.586 298.744C465.317 313.389 463.137 379.8 463.137 380.47C463.132 380.604 463.075 380.73 462.978 380.822C462.881 380.913 462.752 380.963 462.618 380.961Z" fill="#1C056D"/>
<path d="M459.877 250.509C459.877 250.509 461.959 262.403 470.259 265.643L470.911 263.937C470.911 263.937 462.551 257.701 461.931 249.5L459.877 250.509Z" fill="#1C056D"/>
<path d="M452.219 375.21C452.212 375.111 452.225 375.011 452.258 374.917C452.29 374.822 452.341 374.735 452.408 374.661C452.474 374.586 452.555 374.526 452.645 374.483C452.736 374.441 452.834 374.416 452.934 374.412C456.846 374.23 474.58 373.464 474.649 374.447C474.728 375.553 474.571 378.958 473.78 379.438C472.989 379.917 464.678 380.462 462.62 380.462C460.562 380.462 453.201 380.154 452.805 379.438C452.514 378.906 452.308 376.473 452.219 375.21Z" fill="#1C056D"/>
<path d="M480.339 374.195C480.326 374.089 480.334 373.982 480.363 373.88C480.393 373.777 480.442 373.682 480.509 373.599C480.576 373.516 480.659 373.447 480.753 373.397C480.847 373.347 480.95 373.317 481.056 373.307C485.481 372.624 505.476 369.583 505.667 370.551C505.885 371.636 506.089 375.045 505.246 375.614C504.402 376.182 495.046 377.801 492.714 378.066C490.382 378.331 482.008 378.971 481.478 378.311C481.091 377.827 480.583 375.436 480.339 374.195Z" fill="#1C056D"/>
<path d="M488.737 131.237C487.098 125.851 470.233 118.868 467.438 125.83C467.438 125.83 468.09 136.558 464.07 137.5C460.049 138.442 454.916 137.717 456.732 139.353C458.549 140.989 462.561 141.454 462.768 142.782C462.974 144.11 460.14 150.761 463.302 152.03C464.524 152.521 465.993 152.421 468.69 152.369C467.925 156.355 466.354 164.714 466.3 166.142C466.239 168.03 480.055 168.175 482.647 166.63C485.24 165.085 478.779 150.461 478.779 150.461C480.424 148.645 490.376 136.625 488.737 131.237Z" fill="#803F10"/>
<path d="M468.688 152.369C468.688 152.369 471.605 152.275 473.624 150.923C473.624 150.923 471.159 155.431 467.477 155.094C467.477 155.094 467.512 152.855 468.688 152.369Z" fill="#5D2C08"/>
<path d="M467.449 130.384C467.449 130.384 477.499 134.479 482.608 131.686C487.718 128.894 468.19 125.765 468.19 125.765L467.449 130.384Z" fill="#5E2C08"/>
<path d="M462.109 144.852C462.109 144.852 466.221 145.184 467.747 144.236C467.747 144.236 464.683 148.178 461.546 147.675C461.546 147.675 461.564 145.85 462.109 144.852Z" fill="white"/>
<path d="M497.476 132.044C497.476 123.469 485.271 121.268 485.271 121.268C485.271 121.268 481.511 115.103 470.709 115.578C465.308 115.817 467.095 116.904 470.231 117.931C467.041 117.577 463.518 117.885 461.088 120.114C457.25 123.631 462.9 123.111 466.739 122.457C466.697 122.564 466.658 122.674 466.623 122.776C463.637 123.792 459.766 125.574 460.821 127.737C461.69 129.542 464.787 129.256 467.499 128.562C469.699 129.851 477.462 130.836 477.462 130.836C477.462 130.836 474.202 138.8 474.23 139.6C474.258 140.401 476.236 136.118 478.316 138.207C479.005 138.899 477.964 142.547 476.61 142.968C475.193 143.415 473.98 142.317 473.98 142.317C473.98 142.317 474.799 149.747 478.783 150.459C481.609 150.965 487.792 145.316 491.063 139.112C492.173 140.679 493.303 141.367 493.701 138.576C493.968 136.767 493.761 134.919 493.099 133.214L493.125 132.984C495.157 135.286 497.476 136.842 497.476 132.044Z" fill="#1B3D9E"/>
<path d="M471.157 389.552L472.933 398.588C472.963 398.912 472.925 399.24 472.821 399.549C472.718 399.858 472.55 400.142 472.331 400.383C472.111 400.624 471.843 400.817 471.544 400.948C471.246 401.08 470.923 401.148 470.596 401.148H435.512C435.464 399.735 435.725 398.328 436.277 397.025C437.196 394.886 455.107 389.841 455.872 389.077C455.872 389.077 461.849 391.095 464.259 391.095C466.669 391.095 471.157 389.552 471.157 389.552Z" fill="#1B3D9E"/>
<path d="M452.488 390.383C452.488 390.383 454.129 391.598 454.227 392.453C454.288 392.989 453.838 393.074 453.496 393.061C453.284 393.055 453.082 392.971 452.927 392.826L450.884 390.923C451.063 390.679 451.313 390.496 451.6 390.399C451.887 390.303 452.198 390.297 452.488 390.383Z" fill="#1C056D"/>
<path d="M448.793 391.542C448.793 391.542 450.434 392.757 450.532 393.612C450.593 394.15 450.143 394.232 449.802 394.222C449.59 394.213 449.388 394.13 449.232 393.987L447.189 392.084C447.368 391.84 447.618 391.656 447.905 391.559C448.192 391.462 448.503 391.456 448.793 391.542Z" fill="#1C056D"/>
<path d="M445.453 392.911C445.453 392.911 447.094 394.126 447.191 394.979C447.25 395.517 446.802 395.6 446.459 395.589C446.248 395.582 446.046 395.499 445.892 395.355L443.849 393.451C444.028 393.207 444.278 393.024 444.565 392.927C444.852 392.83 445.162 392.825 445.453 392.911Z" fill="#1C056D"/>
<path d="M441.863 394.289C441.863 394.289 443.503 395.504 443.601 396.359C443.662 396.895 443.212 396.98 442.871 396.967C442.659 396.961 442.456 396.877 442.302 396.732L440.259 394.829C440.437 394.585 440.687 394.402 440.975 394.305C441.262 394.208 441.572 394.203 441.863 394.289Z" fill="#1C056D"/>
<path d="M403.629 196.756C403.629 196.756 399.115 194.755 398.87 194.345C398.624 193.935 396.316 184.233 395.082 183.582C393.847 182.931 395.734 189.994 395.082 190.572C394.43 191.149 388.105 184.86 388.105 184.86C388.105 184.86 388.105 193.191 390.387 195.916C391.691 197.474 399.565 203.878 399.565 203.878L403.629 196.756Z" fill="#803F10"/>
<path d="M387.94 186.299C388.157 186.364 390.581 190.467 390.937 191.724C391.293 192.98 387.894 187.696 387.868 187.306C387.857 186.968 387.881 186.631 387.94 186.299Z" fill="#5D2C08"/>
<path d="M388.105 190.669C388.105 190.669 390.931 194.974 390.844 195.194C390.757 195.413 387.675 192.514 387.801 191.811C387.872 191.423 387.974 191.041 388.105 190.669Z" fill="#5D2C08"/>
<path d="M494.831 181.412C493.873 174.169 483.265 164.736 483.265 164.736C480.048 168.151 466.293 166.311 466.293 166.311C466.293 166.311 449.917 189.586 441.7 211.987C441.7 211.987 428.601 201.641 403.916 195.929L398.783 204.911C398.783 204.911 436.058 238.483 448.022 234.779C450.771 233.928 453.89 231.569 456.998 228.445C456.25 235.896 455.824 241.994 456.346 243.324C457.702 246.742 472.374 242.641 481.956 241.821C491.538 241 493.181 241.684 490.032 235.063C486.883 228.442 495.789 188.656 494.831 181.412Z" fill="#D13F96"/>
<path d="M456.998 228.445C456.998 228.445 474.167 207.613 476.992 197.895C476.992 197.895 467.543 231.923 456.346 235.634L456.998 228.445Z" fill="#A03279"/>
<path d="M264.293 169.505C264.293 169.505 287.954 187.082 291.894 186.201C295.834 185.32 315.09 157.392 315.09 157.392L324.001 163.18C324.001 163.18 308.613 205.527 300.789 206.935C292.965 208.344 275.094 203.227 275.094 203.227L264.293 169.505Z" fill="#D13F96"/>
<path d="M264.293 169.505C264.293 169.505 286.765 193.85 289.56 207.181L271.256 205.024C271.256 205.024 262.108 175.31 264.301 169.505" fill="#A03279"/>
<path d="M322.336 161.352C322.336 161.352 311.804 172.487 308.715 179.279C308.715 179.279 311.171 182.59 310.019 186.34C308.868 190.09 307.411 190.072 307.411 190.072C307.411 190.072 310.019 195.873 302.695 197.257C302.695 197.257 302.6 203.008 293.743 203.227L292.928 190.795L314.264 158.584C314.264 158.584 320.508 158.373 322.336 161.352Z" fill="#A03279"/>
<path d="M323.212 162.676C323.212 162.676 326.343 157.859 326.804 157.392C327.265 156.926 333.172 151.173 332.855 150.765C331.753 149.346 326.335 154.795 326.335 154.795L320.069 160.636L323.212 162.676Z" fill="#FE8E9C"/>
<path d="M315.09 157.392C315.09 157.392 324.807 162.685 324.807 163.373C324.807 164.061 323.503 167.669 322.814 167.435C322.125 167.201 312.525 161.882 312.599 160.756C312.673 159.629 315.09 157.392 315.09 157.392Z" fill="white"/>
<path d="M227.885 156.674C227.885 156.674 207.456 173.752 206.767 183.55C206.078 193.347 217.333 209.229 217.333 209.229H280.834C280.834 209.229 270.5 175.594 264.299 169.505C258.099 163.416 244.559 158.822 244.559 158.822L227.885 156.674Z" fill="#D13F96"/>
<path d="M278.367 201.617L268.17 209.96L281.688 209.709L278.367 201.617Z" fill="#D13F96"/>
<path d="M247.656 110.006C249.311 109.715 251.017 109.955 252.526 110.694C254.035 111.446 255.196 112.748 255.771 114.331C256.651 116.88 255.754 119.832 256.84 122.299C257.51 123.818 258.844 124.938 259.644 126.387C260.247 127.486 260.524 128.735 260.441 129.985C260.237 133.01 258.005 135.486 255.712 137.476C254.969 135.937 253.719 134.711 252.513 133.498C248.762 129.733 245.087 125.595 243.583 120.5C243.081 118.803 242.855 116.972 243.183 115.218C243.331 114.35 243.647 113.52 244.113 112.773C244.302 112.484 244.372 112.156 244.548 111.855C244.734 111.539 244.975 111.26 245.261 111.03C245.957 110.488 246.782 110.136 247.656 110.006Z" fill="#1B3D9E"/>
<path d="M259.852 136.753C259.852 136.753 256.427 124.35 254.024 122.759C251.62 121.168 255.11 138.468 255.61 138.316C256.11 138.164 258.792 138.064 259.852 136.753Z" fill="#1C056D"/>
<path d="M233.186 121.939C235.109 119.676 242.138 117.195 247.81 118.25C249.374 118.555 250.813 119.313 251.949 120.429C253.084 121.546 253.866 122.971 254.195 124.528C255.758 131.71 258.864 148.662 253.748 150.214C251.468 150.904 248.788 150.364 246.213 149.242C245.691 153.614 243.618 163.564 243.244 164.901C242.716 166.771 230.308 160.374 228.163 158.126C226.77 156.663 236.217 141.154 236.217 141.154C234.996 138.201 230.51 125.088 233.186 121.939Z" fill="#803F10"/>
<path d="M246.213 149.246C244.034 147.732 241.974 146.055 240.051 144.229C240.051 144.229 240.136 156.403 245.769 157.392L246.204 149.246" fill="#5D2C08"/>
<path d="M253.313 128.102C252.287 128.909 250.907 129.341 249.646 129.004C249.332 128.912 249.025 128.797 248.727 128.661C248.565 128.602 248.417 128.509 248.292 128.388C248.23 128.326 248.189 128.246 248.175 128.159C248.161 128.072 248.175 127.983 248.214 127.904C247.561 128.444 246.793 128.827 245.968 129.026C245.144 129.225 244.285 129.234 243.457 129.052C241.912 130.302 240.273 131.693 239.803 133.622C239.304 132.142 239.484 130.493 240.069 129.046C240.653 127.598 241.622 126.335 242.696 125.2C243.193 124.648 243.755 124.158 244.37 123.742C245.765 122.85 247.477 122.607 249.134 122.544C250.388 122.496 251.663 122.544 252.863 122.915C253.839 123.191 254.718 123.734 255.399 124.484C255.467 124.551 255.518 124.632 255.549 124.722C255.58 124.811 255.591 124.907 255.58 125.001C255.524 125.196 255.438 125.382 255.323 125.55C255.082 126 254.813 126.435 254.517 126.852C254.174 127.321 253.769 127.741 253.313 128.102Z" fill="#5D2C08"/>
<path d="M251.092 130.99C251.092 130.99 254.728 136.866 253.96 137.817C253.193 138.767 251.25 136.482 250.657 136.632C250.064 136.782 249.77 137.728 250.501 137.836C251.231 137.945 254.067 139.342 254.36 138.001C254.654 136.66 254.123 135.647 251.092 130.99Z" fill="#5E2C08"/>
<path d="M255.462 141.3C255.462 141.3 253.55 143.209 250.703 141.033C250.771 141.575 251.016 142.08 251.402 142.469C251.787 142.857 252.29 143.108 252.833 143.181C255.414 143.572 255.462 141.3 255.462 141.3Z" fill="white"/>
<path d="M227.885 116.963C230.276 115.416 233.735 113.129 237.474 111.972C237.354 111.918 237.235 111.859 237.119 111.796C236.52 111.466 235.997 111.013 235.585 110.467C235.173 109.921 234.881 109.294 234.729 108.628C234.584 107.96 234.586 107.269 234.736 106.603C234.886 105.937 235.181 105.311 235.598 104.77C236.254 103.994 237.088 103.389 238.03 103.006C238.908 102.602 239.857 102.373 240.823 102.331C241.816 102.311 242.797 102.544 243.674 103.01C244.552 103.475 245.295 104.156 245.834 104.989C246.353 105.835 246.629 106.807 246.634 107.799C246.639 108.792 246.372 109.766 245.863 110.618C245.629 111.008 245.317 111.346 244.946 111.61C244.904 111.636 244.867 111.653 244.828 111.675C246.594 112.213 248.189 113.202 249.455 114.543C256.477 121.737 254.019 122.755 254.019 122.755C254.019 122.755 254.847 126.587 250.138 127.201C247.195 127.587 248.058 126.472 249.116 125.582C247.425 126.784 244.585 128.661 243.331 128.661C241.486 128.661 244.539 125.042 244.539 125.042C244.539 125.042 238.752 130.758 239.386 133.364C239.386 133.364 238.495 129.495 237.032 129.935C235.57 130.376 235.061 132.856 235.761 134.442C236.461 136.029 239.64 135.777 239.64 135.777L235.77 141.812C235.77 141.812 231.623 143.413 227.881 137.506C224.138 131.6 222.947 120.164 227.885 116.963Z" fill="#1B3D9E"/>
<path d="M245.869 110.622C245.869 110.622 243.431 113.472 237.474 111.976L234.594 113.085C234.594 113.085 242.07 117.523 245.869 110.622Z" fill="#1C056D"/>
<path d="M241.827 165.172C241.827 165.172 241.546 174.594 237.365 172.956C233.183 171.317 221.604 162.479 227.885 156.667C227.885 156.667 229.38 157.785 230.276 158.358C231.171 158.931 241.827 165.172 241.827 165.172Z" fill="white"/>
<path d="M243.244 164.905C243.244 164.905 246.365 170.258 247.956 169.414C249.546 168.57 248.825 161.151 248.416 160.882C248.008 160.613 246.026 158.853 244.552 158.822L243.244 164.905Z" fill="white"/>
<path d="M280.795 190.795C280.795 190.795 276.083 198.713 288.836 202.841C288.836 202.841 298.781 205.631 301.841 196.201L280.795 190.795Z" fill="#1C056D"/>
<path d="M327.639 89.9095C327.639 89.9095 294.7 73.5347 280.477 104.822C265.481 137.806 286.813 152.106 285.402 174.696L305.225 179.904C305.225 179.904 310.18 169.034 324.044 157.618C340.937 143.702 354.797 106.588 327.639 89.9095Z" fill="#F9C438"/>
<path d="M276.485 142.623C276.485 142.623 290.612 163.442 298.781 164.844C306.951 166.246 323.896 160.146 323.896 160.146C323.896 160.146 306.944 182.46 305.455 182.519C303.967 182.577 284.794 177.528 284.294 176.807C283.794 176.087 276.778 144.188 276.485 142.623Z" fill="#F6AB36"/>
<path d="M308.396 185.57C308.553 184.977 308.591 184.359 308.508 183.751C308.425 183.143 308.224 182.558 307.914 182.028C307.605 181.498 307.194 181.034 306.705 180.663C306.216 180.292 305.658 180.021 305.064 179.865L285.07 174.609C284.476 174.453 283.856 174.415 283.248 174.498C282.639 174.581 282.053 174.783 281.522 175.093C280.992 175.402 280.528 175.813 280.156 176.301C279.785 176.79 279.514 177.347 279.358 177.94C279.175 178.631 279.154 179.355 279.296 180.056C279.438 180.756 279.74 181.415 280.177 181.981C279.278 182.359 278.519 183.01 278.008 183.841C277.498 184.671 277.26 185.641 277.329 186.614C277.398 187.586 277.77 188.513 278.393 189.263C279.016 190.014 279.859 190.551 280.803 190.799L300.798 196.055C301.744 196.305 302.744 196.253 303.659 195.906C304.573 195.559 305.356 194.934 305.896 194.119C306.436 193.304 306.707 192.341 306.67 191.365C306.633 190.389 306.29 189.449 305.69 188.677C306.35 188.401 306.936 187.977 307.406 187.438C307.875 186.899 308.214 186.26 308.396 185.57Z" fill="#D4DFFF"/>
<path opacity="0.3" d="M278.689 178.574C280.694 179.894 282.862 180.951 285.137 181.72C288.801 182.937 306.786 185.596 308.392 185.57C308.392 185.57 308.192 188.247 305.686 188.681C305.686 188.681 307.294 189.983 306.773 191.706C306.773 191.706 288.045 186.974 287.43 186.878C286.815 186.783 276.563 185.409 276.563 185.409C276.563 185.409 277.719 181.332 278.954 181.655C278.952 181.655 278.019 179.209 278.689 178.574Z" fill="#6880E4"/>
<path d="M305.805 136.513C303.718 135.964 301.841 134.81 300.411 133.196C298.981 131.582 298.062 129.581 297.771 127.446C297.48 125.311 297.829 123.137 298.775 121.2C299.721 119.264 301.221 117.65 303.085 116.564C304.949 115.479 307.094 114.969 309.248 115.101C311.403 115.232 313.469 115.998 315.188 117.302C316.906 118.606 318.198 120.39 318.901 122.427C319.604 124.465 319.686 126.664 319.137 128.748C318.397 131.541 316.578 133.927 314.079 135.382C311.579 136.837 308.604 137.244 305.805 136.513ZM327.756 127.937L324.881 127.182C325.056 124.9 324.744 122.607 323.966 120.455L326.532 118.959C326.688 118.869 326.801 118.721 326.847 118.548C326.893 118.375 326.868 118.19 326.778 118.035L324.457 114.06C324.366 113.905 324.217 113.792 324.043 113.747C323.869 113.701 323.684 113.726 323.529 113.817L320.96 115.312C319.472 113.582 317.635 112.187 315.568 111.217L316.324 108.348C316.37 108.175 316.345 107.99 316.254 107.835C316.164 107.68 316.016 107.567 315.842 107.521L311.387 106.35C311.213 106.304 311.028 106.329 310.873 106.419C310.717 106.51 310.604 106.658 310.558 106.831L309.802 109.702C307.517 109.526 305.22 109.838 303.065 110.618L301.567 108.053C301.523 107.976 301.463 107.909 301.392 107.855C301.322 107.801 301.241 107.762 301.155 107.74C301.069 107.717 300.979 107.712 300.891 107.724C300.803 107.736 300.718 107.765 300.642 107.81L296.66 110.128C296.583 110.172 296.516 110.232 296.462 110.302C296.408 110.373 296.369 110.453 296.346 110.539C296.324 110.625 296.318 110.715 296.33 110.803C296.342 110.891 296.372 110.975 296.417 111.052L297.914 113.617C296.177 115.105 294.776 116.945 293.804 119.014L290.929 118.265C290.843 118.242 290.753 118.236 290.665 118.248C290.577 118.26 290.492 118.289 290.415 118.334C290.338 118.379 290.27 118.438 290.216 118.509C290.163 118.58 290.123 118.661 290.101 118.747L288.927 123.197C288.905 123.283 288.899 123.373 288.911 123.46C288.923 123.548 288.953 123.633 288.997 123.71C289.042 123.786 289.102 123.853 289.172 123.907C289.243 123.96 289.324 124 289.41 124.022L292.285 124.779C292.111 127.057 292.422 129.347 293.2 131.495L290.633 132.991C290.556 133.035 290.489 133.095 290.435 133.166C290.381 133.237 290.342 133.317 290.319 133.404C290.297 133.49 290.291 133.579 290.303 133.667C290.316 133.756 290.345 133.84 290.39 133.917L292.711 137.89C292.756 137.967 292.815 138.034 292.886 138.088C292.957 138.142 293.037 138.181 293.123 138.204C293.209 138.226 293.299 138.232 293.387 138.22C293.475 138.208 293.56 138.178 293.637 138.134L296.206 136.638C297.695 138.373 299.537 139.772 301.609 140.742L300.852 143.613C300.807 143.786 300.832 143.971 300.922 144.126C301.013 144.281 301.161 144.394 301.335 144.44L305.788 145.607C305.874 145.63 305.964 145.636 306.052 145.624C306.14 145.612 306.225 145.583 306.302 145.538C306.379 145.493 306.447 145.434 306.5 145.363C306.554 145.292 306.594 145.211 306.616 145.125L307.372 142.254C309.658 142.43 311.954 142.119 314.11 141.341L315.607 143.904C315.698 144.059 315.847 144.172 316.02 144.217C316.194 144.263 316.379 144.239 316.535 144.149L320.515 141.831C320.669 141.74 320.782 141.592 320.828 141.418C320.873 141.244 320.848 141.06 320.758 140.905L319.263 138.335C320.999 136.846 322.399 135.007 323.372 132.939L326.248 133.694C326.334 133.716 326.423 133.722 326.511 133.71C326.599 133.698 326.684 133.669 326.761 133.624C326.837 133.579 326.905 133.52 326.958 133.449C327.012 133.378 327.051 133.298 327.074 133.212L328.247 128.763C328.27 128.677 328.275 128.587 328.262 128.498C328.25 128.41 328.22 128.325 328.174 128.248C328.128 128.171 328.068 128.104 327.996 128.051C327.925 127.997 327.843 127.958 327.756 127.937Z" fill="white"/>
<path d="M218.405 209.872C218.405 209.872 226.933 228.499 242.905 225.476C258.877 222.453 287.91 194.636 287.91 194.636L284.618 183.582C284.618 183.582 246.584 200.371 244.861 198.555C243.137 196.739 233.138 183.582 233.138 183.582C233.138 183.582 213.967 200.313 218.405 209.872Z" fill="#D13F96"/>
<path d="M273.281 187.375C273.281 187.375 249.249 197.672 243.783 197.924C238.317 198.175 232.366 185.338 232.366 185.338C232.366 185.338 239.847 195.302 243.233 194.792C246.619 194.282 272.112 184.446 272.112 184.446L273.281 187.375Z" fill="#A03279"/>
<path d="M284.131 184.934C284.131 184.934 286.35 183.662 286.832 183.363C287.315 183.063 292.561 176.577 293.459 176.814C295.386 177.319 290.536 182.89 292.683 182.948C292.683 182.948 305.084 181.16 305.145 181.935C305.206 182.71 300.313 184.259 295.843 185.329C295.843 185.329 306.835 183.723 308.555 184.437C310.274 185.151 297.747 188.356 297.214 188.356C296.682 188.356 306.342 187.642 307.051 188.356C307.759 189.07 296.141 190.786 296.141 190.786C296.141 190.786 301.533 192.7 301.848 193.297C302.163 193.894 292.741 192.225 291.198 192.225C289.655 192.225 286.439 192.64 286.439 192.64L284.131 184.934Z" fill="#803F10"/>
<path d="M283.54 182.948C283.54 182.948 287.347 193.972 287.234 194.573C287.121 195.174 283.62 197.733 283.39 197.177C283.159 196.622 279.443 185.483 279.543 184.689C279.643 183.895 283.116 182.597 283.54 182.948Z" fill="white"/>
<path d="M592.244 402.016H88.5959C88.3654 402.016 88.1442 401.925 87.9812 401.762C87.8182 401.599 87.7266 401.379 87.7266 401.148C87.7266 400.918 87.8182 400.697 87.9812 400.535C88.1442 400.372 88.3654 400.28 88.5959 400.28H592.244C592.475 400.28 592.696 400.372 592.859 400.535C593.022 400.697 593.113 400.918 593.113 401.148C593.113 401.379 593.022 401.599 592.859 401.762C592.696 401.925 592.475 402.016 592.244 402.016Z" fill="#D4DFFF"/>
<path d="M569.683 61.9882C568.281 59.1889 503.924 61.3719 503.074 61.9882C499.217 64.7897 502.725 99.4424 503.074 100.831C503.157 101.163 506.756 101.376 512.242 101.5C509.634 108.52 506.374 117.501 506.982 117.898C508.812 119.087 517.264 108.556 523.954 101.634C542.833 101.701 567.942 101.267 569.683 100.831C572.489 100.143 571.087 64.7897 569.683 61.9882Z" fill="#D4DFFF"/>
<path d="M518.073 81.1819C518.085 81.8105 517.911 82.4288 517.572 82.9587C517.233 83.4886 516.745 83.9063 516.168 84.159C515.591 84.4118 514.953 84.4883 514.333 84.3788C513.713 84.2694 513.139 83.9789 512.684 83.5441C512.229 83.1093 511.913 82.5497 511.777 81.9359C511.64 81.3221 511.689 80.6817 511.917 80.0955C512.145 79.5093 512.541 79.0037 513.057 78.6424C513.572 78.2812 514.183 78.0805 514.813 78.0658C515.232 78.056 515.649 78.1289 516.04 78.2803C516.431 78.4318 516.788 78.6587 517.09 78.9482C517.393 79.2377 517.636 79.584 517.805 79.9673C517.973 80.3506 518.064 80.7634 518.073 81.1819Z" fill="#6880E4"/>
<path d="M532.548 83.1806C533.793 81.9383 533.793 79.9241 532.548 78.6817C531.304 77.4394 529.287 77.4394 528.043 78.6817C526.798 79.924 526.798 81.9383 528.043 83.1806C529.287 84.423 531.304 84.423 532.548 83.1806Z" fill="#6880E4"/>
<path d="M548.363 82.3499C549.324 80.8786 548.909 78.9074 547.436 77.9472C545.962 76.9869 543.988 77.4013 543.026 78.8726C542.065 80.3439 542.48 82.315 543.953 83.2753C545.427 84.2355 547.401 83.8212 548.363 82.3499Z" fill="#6880E4"/>
<path d="M563.365 82.5517C564.609 81.3093 564.609 79.2951 563.365 78.0528C562.121 76.8104 560.103 76.8104 558.859 78.0528C557.615 79.2951 557.615 81.3094 558.859 82.5517C560.103 83.7941 562.121 83.794 563.365 82.5517Z" fill="#6880E4"/>
<path d="M301.676 77.6035C301.676 77.6035 298.597 51.0297 301.676 39.1707C301.676 39.1707 303.656 71.0154 301.676 77.6035Z" fill="#F9C438"/>
<path d="M286.702 84.3848C286.702 84.3848 279.312 66.1568 265.838 55.2916C265.827 55.2916 276.052 73.346 286.702 84.3848Z" fill="#F9C438"/>
<path d="M249.631 81.9543C249.631 81.9543 258.779 91.8083 274.529 95.1914C274.529 95.1892 259.822 86.3204 249.631 81.9543Z" fill="#F9C438"/>
<path d="M294.641 79.0748C294.641 79.0748 291.305 64.8895 288.906 60.8923C288.906 60.8923 288.571 67.5976 294.641 79.0748Z" fill="#F9C438"/>
<path d="M278.876 88.5729C278.876 88.5729 269.313 77.5645 265.327 75.1406C265.327 75.1406 268.157 81.2318 278.876 88.5729Z" fill="#F9C438"/>
<path d="M273.051 102.661C273.051 102.661 258.572 100.829 253.982 101.68C253.982 101.68 260.161 104.334 273.051 102.661Z" fill="#F9C438"/>
</svg>
